<svg xmlns="http://www.w3.org/2000/svg" viewBox="-106.5 -57.0 247.6 193.0" width="248" height="193"><polygon points="-95.3,55.0 34.6,130.0 34.6,90.0 -95.3,15.0" fill="#fff" stroke="#101828" stroke-width="1.25" stroke-linejoin="round" /><polygon points="129.9,75.0 34.6,130.0 34.6,90.0 129.9,35.0" fill="#fff" stroke="#101828" stroke-width="1.25" stroke-linejoin="round" /><polygon points="0.0,-40.0 129.9,35.0 34.6,90.0 -95.3,15.0" fill="#fff" stroke="#101828" stroke-width="1.25" stroke-linejoin="round" /><polygon points="-100.5,15.0 34.6,93.0 34.6,85.0 -100.5,7.0" fill="#fff" stroke="#101828" stroke-width="1.25" stroke-linejoin="round" /><polygon points="135.1,35.0 34.6,93.0 34.6,85.0 135.1,27.0" fill="#fff" stroke="#101828" stroke-width="1.25" stroke-linejoin="round" /><polygon points="0.0,-51.0 135.1,27.0 34.6,85.0 -100.5,7.0" fill="#fff" stroke="#101828" stroke-width="1.25" stroke-linejoin="round" /><line x1="-100.5" y1="11.0" x2="34.6" y2="89.0" stroke="#101828" stroke-width="1.25" stroke-linecap="round" /><line x1="34.6" y1="89.0" x2="135.1" y2="31.0" stroke="#101828" stroke-width="1.25" stroke-linecap="round" /><ellipse cx="-79.5" cy="32.1" rx="1.51" ry="1.26" fill="#101828"/><ellipse cx="-75.9" cy="34.2" rx="1.51" ry="1.26" fill="#101828"/><ellipse cx="-72.2" cy="36.3" rx="1.51" ry="1.26" fill="#101828"/><ellipse cx="-83.1" cy="34.2" rx="1.51" ry="1.26" fill="#101828"/><ellipse cx="-83.1" cy="38.4" rx="1.51" ry="1.26" fill="#101828"/><ellipse cx="-72.2" cy="44.7" rx="1.51" ry="1.26" fill="#101828"/><ellipse cx="-68.6" cy="46.8" rx="1.51" ry="1.26" fill="#101828"/><ellipse cx="-83.1" cy="42.6" rx="1.51" ry="1.26" fill="#101828"/><ellipse cx="-68.6" cy="51.0" rx="1.51" ry="1.26" fill="#101828"/><ellipse cx="-79.5" cy="48.9" rx="1.51" ry="1.26" fill="#101828"/><ellipse cx="-75.9" cy="51.0" rx="1.51" ry="1.26" fill="#101828"/><ellipse cx="-72.2" cy="53.1" rx="1.51" ry="1.26" fill="#101828"/><ellipse cx="-57.7" cy="44.7" rx="1.51" ry="1.26" fill="#101828"/><ellipse cx="-54.0" cy="46.8" rx="1.51" ry="1.26" fill="#101828"/><ellipse cx="-50.4" cy="48.9" rx="1.51" ry="1.26" fill="#101828"/><ellipse cx="-61.3" cy="46.8" rx="1.51" ry="1.26" fill="#101828"/><ellipse cx="-46.8" cy="55.2" rx="1.51" ry="1.26" fill="#101828"/><ellipse cx="-61.3" cy="51.0" rx="1.51" ry="1.26" fill="#101828"/><ellipse cx="-46.8" cy="59.4" rx="1.51" ry="1.26" fill="#101828"/><ellipse cx="-61.3" cy="55.2" rx="1.51" ry="1.26" fill="#101828"/><ellipse cx="-46.8" cy="63.6" rx="1.51" ry="1.26" fill="#101828"/><ellipse cx="-57.7" cy="61.5" rx="1.51" ry="1.26" fill="#101828"/><ellipse cx="-54.0" cy="63.6" rx="1.51" ry="1.26" fill="#101828"/><ellipse cx="-50.4" cy="65.7" rx="1.51" ry="1.26" fill="#101828"/><ellipse cx="-39.5" cy="55.2" rx="1.51" ry="1.26" fill="#101828"/><ellipse cx="-35.9" cy="57.3" rx="1.51" ry="1.26" fill="#101828"/><ellipse cx="-32.2" cy="59.4" rx="1.51" ry="1.26" fill="#101828"/><ellipse cx="-28.6" cy="61.5" rx="1.51" ry="1.26" fill="#101828"/><ellipse cx="-24.9" cy="63.6" rx="1.51" ry="1.26" fill="#101828"/><ellipse cx="-28.6" cy="65.7" rx="1.51" ry="1.26" fill="#101828"/><ellipse cx="-32.2" cy="67.8" rx="1.51" ry="1.26" fill="#101828"/><ellipse cx="-35.9" cy="69.9" rx="1.51" ry="1.26" fill="#101828"/><ellipse cx="-39.5" cy="72.0" rx="1.51" ry="1.26" fill="#101828"/><ellipse cx="-35.9" cy="74.1" rx="1.51" ry="1.26" fill="#101828"/><ellipse cx="-32.2" cy="76.2" rx="1.51" ry="1.26" fill="#101828"/><ellipse cx="-28.6" cy="78.3" rx="1.51" ry="1.26" fill="#101828"/><ellipse cx="-24.9" cy="80.4" rx="1.51" ry="1.26" fill="#101828"/><ellipse cx="-14.0" cy="69.9" rx="1.51" ry="1.26" fill="#101828"/><ellipse cx="-10.4" cy="72.0" rx="1.51" ry="1.26" fill="#101828"/><ellipse cx="-6.8" cy="74.1" rx="1.51" ry="1.26" fill="#101828"/><ellipse cx="-17.7" cy="72.0" rx="1.51" ry="1.26" fill="#101828"/><ellipse cx="-3.1" cy="80.4" rx="1.51" ry="1.26" fill="#101828"/><ellipse cx="-17.7" cy="76.2" rx="1.51" ry="1.26" fill="#101828"/><ellipse cx="-3.1" cy="84.6" rx="1.51" ry="1.26" fill="#101828"/><ellipse cx="-17.7" cy="80.4" rx="1.51" ry="1.26" fill="#101828"/><ellipse cx="-3.1" cy="88.8" rx="1.51" ry="1.26" fill="#101828"/><ellipse cx="-14.0" cy="86.7" rx="1.51" ry="1.26" fill="#101828"/><ellipse cx="-10.4" cy="88.8" rx="1.51" ry="1.26" fill="#101828"/><ellipse cx="-6.8" cy="90.9" rx="1.51" ry="1.26" fill="#101828"/><line x1="119.5" y1="51.0" x2="119.5" y2="69.0" stroke="#101828" stroke-width="1.25" stroke-linecap="round" /><line x1="115.2" y1="53.5" x2="115.2" y2="66.5" stroke="#101828" stroke-width="1.25" stroke-linecap="round" /><line x1="110.9" y1="56.0" x2="110.9" y2="64.0" stroke="#101828" stroke-width="1.25" stroke-linecap="round" /><line x1="106.5" y1="58.5" x2="106.5" y2="76.5" stroke="#101828" stroke-width="1.25" stroke-linecap="round" /><line x1="102.2" y1="61.0" x2="102.2" y2="74.0" stroke="#101828" stroke-width="1.25" stroke-linecap="round" /><line x1="97.9" y1="63.5" x2="97.9" y2="71.5" stroke="#101828" stroke-width="1.25" stroke-linecap="round" /><line x1="93.5" y1="66.0" x2="93.5" y2="84.0" stroke="#101828" stroke-width="1.25" stroke-linecap="round" /><line x1="89.2" y1="68.5" x2="89.2" y2="81.5" stroke="#101828" stroke-width="1.25" stroke-linecap="round" /><g transform="translate(17.3 17.0) scale(0.9) rotate(15)"><path d="M0 0 C 18 -14 20 -40 0 -44 C -20 -40 -18 -14 0 0 Z" transform="rotate(-90) translate(0 -3)" fill="#101828"/><path d="M0 0 C 18 -14 20 -40 0 -44 C -20 -40 -18 -14 0 0 Z" transform="rotate(30) translate(0 -3)" fill="#101828"/><path d="M0 0 C 18 -14 20 -40 0 -44 C -20 -40 -18 -14 0 0 Z" transform="rotate(150) translate(0 -3)" fill="#101828"/></g></svg>